# xmcd CD database file
#
# Track frame offsets:
#	182
#	17857
#	28195
#	52520
#	74085
#	94572
#	119050
#	134550
#	145472
#	169402
#	203677
#	220662
#	237345
#	252792
#
# Disc length: 3517 seconds
#
# Revision: 0
# Processed by: cddbd v1.5.1PL0 Copyright (c) Steve Scherf et al.
# Submitted via: CDex 1.51
#
DISCID=d20dbb0e
DTITLE=Mimi Blais - Ragtima
DYEAR=1992
DGENRE=Jazz
TTITLE0=Maple Leaf Rag
TTITLE1=Tricky Fingers
TTITLE2=Romantic Rag
TTITLE3=Eubie's Classical Rag
TTITLE4=Heliotrope Bouquet
TTITLE5=Ma Douce Amie - A Sweet Tiny Rag
TTITLE6=Golden Hours
TTITLE7=Dizzy "Bumblebee" Fingers
TTITLE8=Rhapsody Rag
TTITLE9=Old Mortality
TTITLE10=The Entertainer
TTITLE11=Chalumeau
TTITLE12=April Fool Rag
TTITLE13=Funky Rag
EXTD=YEAR: 1992
EXTT0=
EXTT1=
EXTT2=
EXTT3=
EXTT4=
EXTT5=
EXTT6=
EXTT7=
EXTT8=
EXTT9=
EXTT10=
EXTT11=
EXTT12=
EXTT13=
PLAYORDER=
